<svg width="81" height="45" viewBox="0 0 81 45" fill="none" xmlns="http://www.w3.org/2000/svg">
<path d="M10.5211 7.3H12.4711V14.225H20.2461V7.3H22.1711V23H20.2461V15.9H12.4711V23H10.5211V7.3ZM31.5697 23.3C30.4947 23.3 29.5364 23.0625 28.6947 22.5875C27.8614 22.1125 27.2031 21.4083 26.7197 20.475C26.2364 19.5417 25.9947 18.3917 25.9947 17.025C25.9947 15.65 26.2364 14.5 26.7197 13.575C27.2031 12.6417 27.8614 11.9375 28.6947 11.4625C29.5364 10.9875 30.4947 10.75 31.5697 10.75C32.6364 10.75 33.5864 10.9875 34.4197 11.4625C35.2614 11.9375 35.9197 12.6417 36.3947 13.575C36.8781 14.5 37.1197 15.65 37.1197 17.025C37.1197 18.3917 36.8781 19.5417 36.3947 20.475C35.9197 21.4083 35.2614 22.1125 34.4197 22.5875C33.5864 23.0625 32.6364 23.3 31.5697 23.3ZM31.5197 21.6C32.2947 21.6 32.9531 21.4167 33.4947 21.05C34.0364 20.675 34.4447 20.1458 34.7197 19.4625C35.0031 18.7792 35.1447 17.9667 35.1447 17.025C35.1447 15.6 34.8489 14.4792 34.2572 13.6625C33.6656 12.8375 32.7864 12.425 31.6197 12.425C30.8364 12.425 30.1739 12.6125 29.6322 12.9875C29.0989 13.3542 28.6906 13.8833 28.4072 14.575C28.1322 15.2583 27.9947 16.075 27.9947 17.025C27.9947 18.4333 28.2906 19.55 28.8822 20.375C29.4822 21.1917 30.3614 21.6 31.5197 21.6ZM57.7166 23V15.975C57.7166 14.8333 57.4416 13.9667 56.8916 13.375C56.3499 12.775 55.6166 12.475 54.6916 12.475C53.6083 12.475 52.7791 12.8958 52.2041 13.7375C51.6291 14.5708 51.3416 15.725 51.3416 17.2H50.4416C50.4416 16.125 50.5458 15.1833 50.7541 14.375C50.9708 13.5667 51.2833 12.8958 51.6916 12.3625C52.0999 11.8208 52.5958 11.4167 53.1791 11.15C53.7624 10.8833 54.4249 10.75 55.1666 10.75C56.1083 10.75 56.9124 10.9625 57.5791 11.3875C58.2541 11.8042 58.7708 12.4042 59.1291 13.1875C59.4874 13.9708 59.6666 14.9 59.6666 15.975V23H57.7166ZM40.9166 23V11.05H42.5916L42.8166 13.45C43.1916 12.5833 43.7166 11.9167 44.3916 11.45C45.0749 10.9833 45.8916 10.75 46.8416 10.75C47.7833 10.75 48.5874 10.9625 49.2541 11.3875C49.9291 11.8042 50.4458 12.4042 50.8041 13.1875C51.1624 13.9708 51.3416 14.9 51.3416 15.975V23H49.4166V15.975C49.4166 14.8333 49.1416 13.9667 48.5916 13.375C48.0499 12.775 47.3083 12.475 46.3666 12.475C45.6499 12.475 45.0291 12.6708 44.5041 13.0625C43.9791 13.4542 43.5749 14.0167 43.2916 14.75C43.0083 15.475 42.8666 16.3417 42.8666 17.35V23H40.9166ZM68.4553 23.3C67.4219 23.3 66.4969 23.0375 65.6803 22.5125C64.8719 21.9792 64.2303 21.2417 63.7553 20.3C63.2886 19.3583 63.0553 18.275 63.0553 17.05C63.0553 15.7417 63.2886 14.6167 63.7553 13.675C64.2219 12.7333 64.8594 12.0125 65.6678 11.5125C66.4844 11.0042 67.4136 10.75 68.4553 10.75C69.3636 10.75 70.1386 10.9333 70.7803 11.3C71.4219 11.6667 71.9386 12.1625 72.3303 12.7875C72.7219 13.4125 72.9928 14.1208 73.1428 14.9125C73.3011 15.6958 73.3469 16.5083 73.2803 17.35H64.6303V16.15H71.9928L71.4178 16.525C71.4428 16.0333 71.4136 15.5417 71.3303 15.05C71.2553 14.5583 71.1094 14.1083 70.8928 13.7C70.6761 13.2833 70.3719 12.95 69.9803 12.7C69.5886 12.45 69.0886 12.325 68.4803 12.325C67.7136 12.325 67.0719 12.5208 66.5553 12.9125C66.0386 13.3042 65.6511 13.8208 65.3928 14.4625C65.1344 15.0958 65.0053 15.7833 65.0053 16.525V17.325C65.0053 18.1583 65.1303 18.9042 65.3803 19.5625C65.6386 20.2208 66.0219 20.7417 66.5303 21.125C67.0386 21.5083 67.6803 21.7 68.4553 21.7C69.2303 21.7 69.8678 21.5125 70.3678 21.1375C70.8678 20.7625 71.1719 20.2083 71.2803 19.475H73.3053C73.1803 20.2667 72.8969 20.95 72.4553 21.525C72.0136 22.0917 71.4511 22.5292 70.7678 22.8375C70.0844 23.1458 69.3136 23.3 68.4553 23.3Z" fill="#212121"/>
<line x1="9.49609" y1="43.5" x2="68.9791" y2="43.5" stroke="#212121" stroke-width="3" stroke-linecap="round" stroke-linejoin="round"/>
</svg>
